<svg xmlns="http://www.w3.org/2000/svg" viewBox="0 0 135.467 135.467">
  <path d="m 11.723,124.458 v -6.673 h 3.019 q 3.178,0 5.085,-0.954 1.907,-0.953 3.496,-3.654 1.589,-2.701 3.496,-7.786 L 62.092,11.008 h 12.394 l 35.91,98.355 q 1.271,3.337 2.701,5.244 1.43,1.748 3.496,2.542 2.066,0.636 5.085,0.636 h 2.066 v 6.673 H 80.047 v -6.673 h 3.655 q 4.767,0 7.15,-1.748 2.383,-1.907 2.383,-5.879 0,-0.953 -0.159,-1.748 -0.159,-0.953 -0.477,-1.907 -0.159,-1.112 -0.636,-2.224 L 85.609,86.483 H 43.82 l -6.038,16.684 q -0.477,1.271 -0.794,2.542 -0.318,1.271 -0.477,2.383 -0.159,0.954 -0.159,1.907 0,3.972 2.542,5.879 2.701,1.907 7.945,1.907 h 3.655 v 6.673 z M 46.839,78.538 H 82.749 L 72.897,50.732 q -1.589,-4.767 -3.178,-9.057 -1.43,-4.29 -2.701,-8.262 -1.112,-3.973 -2.066,-7.786 -0.794,3.813 -1.907,7.468 -0.953,3.496 -2.225,7.468 -1.271,3.813 -3.178,8.739 z" fill="#900"/>
  <path d="m 43.426,123.673 v -2.134 h 1.168 q 1.118,0 2.032,-0.203 0.965,-0.254 1.524,-0.965 0.61,-0.762 0.61,-2.235 v -9.601 l -9.398,-16.307 q -0.559,-0.965 -1.067,-1.524 -0.457,-0.61 -1.067,-0.864 -0.61,-0.305 -1.473,-0.305 h -0.66 v -2.134 h 13.97 v 2.134 h -1.88 q -1.372,0 -1.829,0.508 -0.406,0.457 -0.406,1.118 0,0.711 0.305,1.422 0.305,0.711 0.61,1.27 l 3.759,6.807 q 0.864,1.575 1.473,3.099 0.66,1.524 1.067,2.692 0.457,-1.067 1.321,-2.642 0.864,-1.575 1.727,-3.15 l 3.251,-5.842 q 0.508,-0.864 0.711,-1.626 0.203,-0.813 0.203,-1.422 0,-1.118 -0.813,-1.676 -0.762,-0.559 -2.235,-0.559 h -1.473 v -2.134 h 12.395 v 2.134 h -0.61 q -0.711,0 -1.372,0.356 -0.61,0.356 -1.321,1.219 -0.66,0.864 -1.524,2.388 l -8.534,15.037 v 9.347 q 0,1.575 0.559,2.388 0.559,0.762 1.524,1.016 0.965,0.254 2.083,0.254 h 1.168 v 2.134 z m 40.996,0.508 q -5.385,0 -8.941,-2.337 -3.556,-2.337 -5.334,-6.553 -1.727,-4.216 -1.727,-9.855 0,-5.639 1.727,-9.804 1.778,-4.166 5.334,-6.452 3.607,-2.337 8.992,-2.337 5.131,0 8.636,2.337 3.556,2.286 5.385,6.502 1.88,4.166 1.88,9.804 0,5.639 -1.88,9.855 -1.829,4.166 -5.385,6.503 -3.556,2.337 -8.687,2.337 z m 0,-2.743 q 3.81,0 6.045,-1.88 2.286,-1.93 3.251,-5.486 1.016,-3.556 1.016,-8.585 0,-5.029 -1.016,-8.585 -0.965,-3.556 -3.251,-5.436 -2.235,-1.88 -5.994,-1.88 -5.69,0 -8.077,4.166 -2.337,4.166 -2.337,11.735 0,5.029 1.016,8.585 1.016,3.556 3.302,5.486 2.286,1.88 6.045,1.88 z" fill="#2d0000"/>
</svg>
